<?xml version="1.0" encoding="UTF-8"?>
<svg id="Capa_1" data-name="Capa 1" xmlns="http://www.w3.org/2000/svg" xmlns:xlink="http://www.w3.org/1999/xlink" viewBox="0 0 595.28 595.28">
  <defs>
    <style>
      .cls-1 {
        fill: #1d3056;
      }

      .cls-2 {
        filter: url(#outer-glow-1);
      }

      .cls-2, .cls-3 {
        fill: #3baa98;
      }

      .cls-4 {
        fill: #1a1a2e;
      }
    </style>
    <filter id="outer-glow-1" x="7.21" y="-8.9" width="640.8" height="629.28" filterUnits="userSpaceOnUse">
      <feOffset dx="0" dy="0"/>
      <feGaussianBlur result="blur" stdDeviation="39.69"/>
      <feFlood flood-color="#70c5c5" flood-opacity="1"/>
      <feComposite in2="blur" operator="in"/>
      <feComposite in="SourceGraphic"/>
    </filter>
  </defs>
  <path class="cls-2" d="M526.3,376.59c-5.44,24.1-24.26,42.44-47.57,50.58-3.98,1.39-8.67,2.45-13.02,2.47l-43.2.25-.31,28.25c-.09,8.13-5.35,14.5-11.52,19.53-18.29,13.15-57.72,19.2-80.34,21.12-49.11,4.17-144.89,5.02-188.12-18.43-11.06-6-15.93-15.17-15.93-27.71l-.02-297.01c0-8.57,2.1-14.94,9.19-20.06,9.27-6.69,20.15-10.74,31.54-13.65,17.96-4.58,35.69-7.49,54.32-8.88,29.86-2.22,54.03-3.83,83.97-1.65l23.2,1.69c20.6,1.5,70.12,8.7,85.26,23.26,5.25,4.65,8.52,10.26,8.57,17.33l.18,28.24h34.66c12.86.01,25.11,2.81,36.05,9.38,2.48-1.25,2.85,1.29,4.2,2.21,14.16,9.63,25.73,24.79,28.81,41.93.65,3.61,2.3,6.7,2.3,10.94l.09,115.51c0,5.43-1.19,9.68-2.32,14.68ZM386.71,157.36c4.6-1.49,9-2.88,13.05-6.45-5.51-4.51-11.8-5.93-18.27-7.95-34.77-10.85-100.31-13.72-136.65-11.07l-24.36,1.77c-16.95,1.23-56.62,7.03-72.06,16.93,3.45,3.32,7.8,5.01,12.36,6.46,56.77,18.1,169.15,18.68,225.94.32ZM334.2,188.34c-.32.03-17.04.64-16.93,1.64-1.47-.14-2.98.17-4.45.18l-12.45.08c-.68,0-1.38.12-.99.71-2.32-.03-4.64.08-6.96.09l-41.97.12c-2.82,0-5.65-1.04-8.94-.75-32.49-1.92-63.48-5.41-94.96-17.29v282.15c-.01,3.99,1.66,5.63,4.78,7.51,29.14,17.51,120.05,19.54,154.8,17.26,24.24-1.59,50.56-3.35,74.06-10.5,7.42-2.26,15-4.28,20.73-9.72,1.81-1.72,1.39-5.22,1.39-8.11l.08-278.63c-23.74,9.31-44.65,12.73-68.19,15.23ZM484.65,241.85c-.39,2.12,1.81,3.92,1.81,6.44l.22,114.65c-.11,13.02-14.26,24.8-25.59,24.86l-30.76.16-7.88.74.07,21.37,40.59-.38c26.78-.25,46.08-24.62,46.01-51.25l-.29-109.46c-.06-24.03-22.85-46.78-46.26-46.95l-40.21-.29v21.41s36.57-.17,36.57-.17c4.59-.02,7.39,2.56,11.1,4.2,6.84,3.03,12.02,7.73,14.63,14.68ZM467.66,354.48v-100.92c-.69-6.45-5.2-10.56-11.46-10.49l-33.84.41.03,124.83c12.73-.29,24.94,1.05,37.2-.38,5.77-.67,8.68-7.72,8.07-13.45Z"/>
  <path class="cls-4" d="M250.45,191.17c-.09.33.36.79.97.79h39.97c.64-.24,1.41-.4,1.03-.91,2.32,0,4.64-.12,6.96-.09l11.71.14c.93.01,1.8-.24,1.73-.94,1.47,0,2.98-.32,4.45-.18.2.02,20.58,1.43,16.93-1.64,23.54-2.5,44.46-5.92,68.19-15.23l-.08,278.63c0,2.89.42,6.39-1.39,8.11-5.73,5.45-13.31,7.46-20.73,9.72-23.5,7.15-49.82,8.91-74.06,10.5-34.75,2.28-125.66.25-154.8-17.26-3.12-1.88-4.79-3.52-4.79-7.51V173.14c31.5,11.88,62.48,15.37,94.97,17.29,3.29-.29,6.12.75,8.94.75ZM166.86,193.78h-8.16v259.06h8.16V193.78ZM276.07,323.34c1.25,1.8,2.63,2.93,3.43,4.67l28.71,63.04,40.8-12.73-6.62-20.87c-6.5,1.41-12.15,3.55-18.03,5.53-2.77.93-3.67-.54-4.69-2.77l-42.74-93.91c-2.57-5.66-5.29-10.41-7.05-16.53l-31.87-.19c-1.4,0-5.2-1.16-5.74.85l-.34,20.37c6.73.97,12.93.43,19.42.24,3-.09,3.53,1.4,4.56,3.78l9.38,21.6c-.07,3.45-3.99,6.69-5.49,9.7-2.95,5.95-6.3,10.77-9.68,16.45l-38.64,64.79,26.47.38,38.14-64.39Z"/>
  <path class="cls-4" d="M386.71,157.36c-56.79,18.37-169.17,17.78-225.94-.32-4.56-1.45-8.91-3.14-12.36-6.46,15.44-9.89,55.11-15.7,72.06-16.93l24.36-1.77c36.34-2.64,101.88.23,136.65,11.07,6.47,2.02,12.76,3.45,18.27,7.95-4.04,3.57-8.45,4.97-13.05,6.45Z"/>
  <path class="cls-4" d="M486.69,362.93l.95-112.99c.03-3.09-1.88-5.58-2.98-8.1-2.61-6.95-7.78-11.65-14.63-14.68-3.71-1.65-6.51-4.22-11.1-4.2l-36.56.17v-21.41s40.2.29,40.2.29c23.41.17,46.2,22.92,46.26,46.95l.29,109.46c.07,26.63-19.22,51-46.01,51.25l-40.59.38-.07-21.37,7.88-.74,30.76-.16c11.33-.06,25.48-11.84,25.59-24.86Z"/>
  <path class="cls-1" d="M486.69,362.93l-.22-114.65c0-2.51-2.2-4.32-1.81-6.44,1.1,2.52,3.01,5.01,2.98,8.1l-.95,112.99Z"/>
  <path class="cls-1" d="M292.42,191.05c.38.51-.4.67-1.03.91h-39.97c-.61,0-1.06-.45-.97-.78l41.97-.12Z"/>
  <path class="cls-1" d="M334.2,188.34c3.65,3.07-16.73,1.66-16.93,1.64-.11-1.01,16.61-1.61,16.93-1.64Z"/>
  <path class="cls-1" d="M312.82,190.16c.07.7-.8.95-1.73.94l-11.71-.14c-.39-.6.31-.71.99-.71l12.45-.08Z"/>
  <path class="cls-3" d="M276.07,323.34l-38.14,64.39-26.47-.38,38.64-64.79c3.38-5.67,6.74-10.5,9.68-16.45,1.49-3.01,5.42-6.25,5.49-9.7l-9.38-21.6c-1.03-2.38-1.57-3.87-4.56-3.78-6.49.19-12.69.73-19.42-.24l.34-20.37c.54-2,4.35-.86,5.74-.85l31.87.19c1.76,6.13,4.48,10.88,7.05,16.53l42.74,93.91c1.01,2.23,1.92,3.7,4.69,2.77,5.88-1.98,11.53-4.12,18.03-5.53l6.62,20.87-40.8,12.73-28.71-63.04c-.79-1.74-2.18-2.87-3.43-4.67Z"/>
  <rect class="cls-3" x="158.7" y="193.78" width="8.16" height="259.06"/>
</svg>